<svg width="100%" viewBox="0 0 680 320" xmlns="http://www.w3.org/2000/svg">
  <circle cx="200" cy="160" r="88" fill="none" stroke="#1e3a5f" stroke-width="3"/>
  <circle cx="200" cy="160" r="78" fill="#1e3a5f"/>
  <path d="M 134 200 A 70 70 0 0 1 266 200" fill="none" stroke="#2d5a9e" stroke-width="10" stroke-linecap="round"/>
  <path d="M 134 200 A 70 70 0 0 1 240 118" fill="none" stroke="#38bdf8" stroke-width="10" stroke-linecap="round"/>
  <line x1="200" y1="160" x2="238" y2="120" stroke="#ffffff" stroke-width="3" stroke-linecap="round"/>
  <circle cx="200" cy="160" r="6" fill="#ffffff"/>
  <circle cx="200" cy="160" r="3" fill="#38bdf8"/>
  <line x1="134" y1="200" x2="142" y2="196" stroke="#4b88c7" stroke-width="2" stroke-linecap="round"/>
  <line x1="145" y1="143" x2="150" y2="150" stroke="#4b88c7" stroke-width="2" stroke-linecap="round"/>
  <line x1="200" y1="92" x2="200" y2="100" stroke="#4b88c7" stroke-width="2" stroke-linecap="round"/>
  <line x1="255" y1="143" x2="250" y2="150" stroke="#4b88c7" stroke-width="2" stroke-linecap="round"/>
  <line x1="266" y1="200" x2="258" y2="196" stroke="#4b88c7" stroke-width="2" stroke-linecap="round"/>
  <path d="M200 175 C200 175 192 165 192 158 C192 153.6 195.6 150 200 150 C204.4 150 208 153.6 208 158 C208 165 200 175 200 175Z" fill="#38bdf8"/>
  <circle cx="130" cy="160" r="3" fill="#38bdf8" opacity="0.6"/>
  <circle cx="112" cy="160" r="2" fill="#38bdf8" opacity="0.4"/>
  <line x1="112" y1="160" x2="130" y2="160" stroke="#38bdf8" stroke-width="1" opacity="0.4"/>
  <circle cx="270" cy="160" r="3" fill="#38bdf8" opacity="0.6"/>
  <circle cx="288" cy="160" r="2" fill="#38bdf8" opacity="0.4"/>
  <line x1="270" y1="160" x2="288" y2="160" stroke="#38bdf8" stroke-width="1" opacity="0.4"/>
  <text x="360" y="145" font-family="-apple-system, BlinkMacSystemFont, Segoe UI, sans-serif" font-size="52" font-weight="700" fill="#1e3a5f" letter-spacing="-1">GasOps</text>
  <text x="362" y="178" font-family="-apple-system, BlinkMacSystemFont, Segoe UI, sans-serif" font-size="15" font-weight="400" fill="#6b7280" letter-spacing="3">GESTIÓN DE ESTACIONES</text>
  <line x1="360" y1="195" x2="600" y2="195" stroke="#e5e7eb" stroke-width="1"/>
  <text x="362" y="218" font-family="-apple-system, BlinkMacSystemFont, Segoe UI, sans-serif" font-size="13" font-weight="400" fill="#38bdf8" letter-spacing="1">Powered by Hidrocom</text>
  <circle cx="362" cy="240" r="3" fill="#1e3a5f"/>
  <circle cx="372" cy="240" r="3" fill="#38bdf8"/>
  <circle cx="382" cy="240" r="3" fill="#1e3a5f" opacity="0.4"/>
</svg>
